<svg xmlns="http://www.w3.org/2000/svg" viewBox="2227 -1300 19.302 19.302"><defs><style>.a{fill:#fff;}</style></defs><path class="a" d="M5.791,15.441a1.93,1.93,0,1,0,1.93,1.93A1.936,1.936,0,0,0,5.791,15.441ZM0,0V1.93H1.93L5.4,9.265,4.053,11.581a3.429,3.429,0,0,0-.193.965,1.936,1.936,0,0,0,1.93,1.93H17.372v-1.93H6.177a.208.208,0,0,1-.193-.193v-.1l.869-1.641h7.142a1.76,1.76,0,0,0,1.641-.965l3.474-6.273A.531.531,0,0,0,19.3,2.9a.912.912,0,0,0-.965-.965H4.053L3.185,0ZM15.441,15.441a1.93,1.93,0,1,0,1.93,1.93A1.936,1.936,0,0,0,15.441,15.441Z" transform="translate(2227 -1300)"/></svg>