<svg width="20px" height="20px" viewBox="0 0 20 20" version="1.1" xmlns="http://www.w3.org/2000/svg" xmlns:xlink="http://www.w3.org/1999/xlink">
    <!-- Generator: Sketch 44.1 (41455) - http://www.bohemiancoding.com/sketch -->
    <desc>Created with Sketch.</desc>
    <defs></defs>
    <g id="Page-1" stroke="none" stroke-width="1" fill="none" fill-rule="evenodd">
        <g id="Mobile---Initial-state" transform="translate(-318.000000, -18.000000)" fill="#00A0DF">
            <g id="search" transform="translate(318.000000, 18.000000)">
                <path d="M19.6951912,18.2156493 L14.7659387,13.2667749 C16.0337075,11.8111204 16.7282757,9.9802519 16.7282757,8.07434063 C16.7282757,3.62224075 12.9763345,0 8.36300146,0 C3.75194119,0 0,3.62224075 0,8.07434063 C0,12.5277571 3.75194119,16.1499978 8.36300146,16.1499978 C10.0944219,16.1499978 11.7458396,15.6462018 13.1554313,14.6877606 L18.123776,19.6761311 C18.3315101,19.885461 18.6101556,20 18.91062,20 C19.192902,20 19.460638,19.8955545 19.6651902,19.7055339 C20.1002045,19.3026726 20.1124776,18.6356256 19.6951912,18.2156493 Z M8.36300146,2.10690306 C11.7722041,2.10690306 14.5459314,4.78474569 14.5459314,8.07434063 C14.5459314,11.365691 11.7722041,14.0430947 8.36300146,14.0430947 C4.95561702,14.0430947 2.18234428,11.365691 2.18234428,8.07434063 C2.18234428,4.78474569 4.95561702,2.10690306 8.36300146,2.10690306 Z" id="Fill-1"></path>
            </g>
        </g>
    </g>
</svg>